<?xml version="1.0" encoding="utf-8"?>
<!-- Generator: Adobe Illustrator 25.0.0, SVG Export Plug-In . SVG Version: 6.00 Build 0)  -->
<svg version="1.1" id="レイヤー_1" xmlns="http://www.w3.org/2000/svg" xmlns:xlink="http://www.w3.org/1999/xlink" x="0px"
	 y="0px" viewBox="0 0 300 100" style="enable-background:new 0 0 300 100;" xml:space="preserve">
<g>
	<path d="M21.65,45.4c0.18-0.3,0.54-0.39,0.87-0.39c0.42,0,1.02,0.51,1.29,0.87c0.27,0.42,0.51,0.87,0.48,1.41
		c-0.09,0.81-0.12,1.59-0.18,2.4c-0.15,1.77-0.24,3.54-0.21,5.31c0,1.38,0.09,2.73,0.3,4.08c0.9-0.75,1.62-1.68,2.25-2.67
		c0.84-1.41,1.71-2.79,2.52-4.2c1.68-2.85,3.39-5.73,5.46-8.28c0.24-0.27,0.54-0.36,0.84-0.36c0.48,0,2.1,1.02,2.22,1.38
		c0.06,0.18,0.09,0.42,0.06,0.63c-0.03,0.45-0.09,0.87-0.15,1.32c-0.36,2.67-0.66,5.37-0.81,8.1c-0.09,1.35-0.18,2.7-0.12,4.08
		c0.03,0.9,0.39,5.37,1.26,5.76c0.12,0.03,0.18,0.12,0.33,0.24c-0.09,0.03-0.21,0.03-0.36,0.03c-3.36,0-3.87-7.17-3.96-9.54
		c-0.03-1.44,0.03-2.85,0.15-4.26c0.06-0.81,0.15-1.65,0.24-2.46c0.03-0.03,0-0.09-0.03-0.15c-1.38,2.22-2.67,4.53-3.96,6.81
		c-0.6,1.11-1.23,2.16-1.89,3.21c-0.57,0.93-1.77,2.64-3,2.64c-0.48,0-0.93-0.18-1.26-0.48c-0.21-0.21-0.51-0.36-0.78-0.51
		c-1.41-0.66-1.77-2.25-1.95-3.69c-0.15-1.32-0.18-2.67-0.12-3.99c0-0.15,0-0.3,0-0.45c0-0.03-0.03-0.03-0.06-0.03
		c-0.03,0.09-0.09,0.18-0.12,0.27c-1.56,3.75-2.67,7.71-3.75,11.64c-0.06,0.18-0.06,0.36-0.12,0.51c-0.06,0.21-0.15,0.33-0.3,0.33
		c-0.09,0-0.15-0.03-0.24-0.09c-0.24-0.12-0.51-0.27-0.75-0.42c-1.65-0.99-1.95-5.79-1.95-7.5c0.03-3.42,0.87-10.08,2.22-12.96
		c0.09-0.18,0.36-0.3,0.63-0.3c0.93,0,1.5,1.32,1.56,2.1c0.03,0.6,0.03,1.23,0,1.83c-0.24,3.45-0.63,6.84-1.05,10.26
		c0,0.03,0,0.03,0.03,0.06C18.41,53.77,19.7,49.24,21.65,45.4z M16.04,58.27c0-0.03-0.03-0.06-0.03-0.06c0,0.09,0,0.18-0.03,0.27
		C16.04,58.42,16.04,58.33,16.04,58.27z M17.42,46.15c-0.06,0.03-0.06,0.06-0.06,0.09c-0.57,3.96-1.02,7.92-1.35,11.94
		c0.12-0.12,0.09-0.3,0.09-0.45C16.52,53.86,16.94,49.99,17.42,46.15z M17.63,60.76H17.6c-0.03,0.12-0.06,0.24-0.09,0.36
		C17.57,61,17.6,60.88,17.63,60.76z M20.51,51.79c0-0.06,0.03-0.09,0.03-0.15c-0.45,0.45-2.43,6.9-2.64,8.07
		c0.03-0.12,0.09-0.21,0.12-0.33C18.74,56.8,19.55,54.25,20.51,51.79z M21.29,49.84c-0.15,0.21-0.24,0.45-0.33,0.69
		C21.11,50.29,21.2,50.08,21.29,49.84z"/>
	<path d="M39.92,54.1c0.03-0.24,0.03-0.45,0-0.69c-0.09-1.56-0.06-3.09,0.48-4.53c1.23-3.15,4.17-5.25,7.56-5.25
		c2.64,0,5.1,1.5,6.54,3.57c1.14,1.56,1.59,3.3,1.56,5.16c-0.09,4.23-2.61,8.67-5.91,11.25c-1.11,0.87-2.43,1.56-3.87,1.56
		c-0.72,0-1.23-0.18-1.89-0.45c-0.24-0.09-0.48-0.24-0.75-0.3c-2.91-0.75-3.69-3.42-3.87-6.03C39.65,56.95,39.74,55.51,39.92,54.1z
		 M43.58,48.43c-0.99,1.71-1.32,3.63-1.59,5.61C42.35,52.09,42.8,50.2,43.58,48.43z M47.27,46.03c-0.06,0.03-0.12,0.06-0.18,0.06
		c-2.97,1.08-3.9,6.21-4.2,8.97c-0.09,0.87-0.12,1.74-0.18,2.64c0,0.21,0.06,0.33,0.27,0.45c0.18,0.09,0.36,0.21,0.54,0.33
		c0.06,0.03,0.09,0.06,0.12,0.12c0,0.03,0,0.03-0.03,0.06c-0.27-0.12-0.54-0.24-0.87-0.36c0.03,1.53,0.45,3.36,1.2,4.68
		c0.18,0.33,0.39,0.39,0.75,0.39c1.92,0,4.29-2.34,5.43-3.72c1.41-1.71,2.49-3.66,3.09-5.85c0.45-1.56,0.57-3.18,0.18-4.83
		c-0.36-1.47-1.53-3.63-3.21-3.87c-0.21,0-0.39-0.06-0.57-0.06c-0.18-0.03-0.33-0.03-0.48-0.03c-0.75,0-1.5,0.18-2.19,0.42
		c0.3,0.3,0.3,0.3,0.39,0.51C47.3,45.97,47.3,46,47.27,46.03z M55.19,52.3c-0.18,1.26-0.42,2.49-0.81,3.69
		C54.83,55.27,55.34,52.99,55.19,52.3z"/>
	<path d="M58.25,57.07c-0.33-0.06-0.6-0.15-0.72-0.57c-0.03-0.12-0.15-0.21-0.21-0.33c-0.09-0.18-0.21-0.36-0.3-0.54
		c-0.12-0.18-0.09-0.33,0.09-0.39c0.18-0.06,0.36-0.12,0.51-0.15c0.33-0.09,0.63-0.18,0.99-0.24c0.21-2.25,0.72-4.38,1.47-6.42
		c-0.03-0.03-0.06-0.06-0.06-0.09c-0.21-0.12-0.36-0.24-0.42-0.48c-0.09-0.27-0.33-0.48-0.48-0.72c-0.09-0.12-0.18-0.27-0.27-0.42
		c-0.18-0.3-0.18-0.6,0.03-0.84c0.69-0.87,1.92-1.44,2.97-1.68c0.21-0.06,0.39-0.12,0.51-0.36c0.21-0.33,0.54-0.66,0.96-0.66
		c0.39,0,0.63,0.15,0.84,0.48c0.09,0.12,0.15,0.15,0.27,0.15c0.54-0.03,1.05-0.06,1.59-0.06c0.78,0,1.59,0.06,2.37,0.15
		c1.5,0.21,3,0.45,4.47,0.69c0.87,0.15,1.89,0.6,2.58,1.14c0.18,0.15,0.3,0.33,0.27,0.6c-0.54,0.24-1.11,0.33-1.71,0.33
		c-0.54,0-1.08-0.03-1.62-0.06c-1.2,0-2.37,0.03-3.57,0.12c-1.02,0.09-2.04,0.12-3.03,0.18c-0.66,0.03-1.32,0.12-1.98,0.15
		c-0.15,0.03-0.24,0.09-0.27,0.27c-0.69,2.19-1.26,4.44-1.56,6.72c0,0,0,0.06,0,0.12c0.33-0.06,0.63-0.12,0.93-0.18
		c0.63-0.12,1.32-0.18,1.98-0.18c0.42,0,1.59,0.03,1.98,0.18c0.15,0.06,0.21,0.24,0.12,0.36c-0.66,0.78-2.25,1.41-3.18,1.68
		c-0.69,0.18-1.38,0.36-2.07,0.54c-0.03,0.15-0.03,0.27-0.03,0.42c-0.06,1.38-0.03,2.76,0.3,4.11c0.42,1.83,0.93,2.67,3.06,2.67
		c2.01,0,4.41-1.23,5.97-2.37c1.47-1.08,2.82-2.25,4.17-3.42c0.96-0.84,1.95-1.68,2.85-2.61c0.03-0.06,0.06-0.09,0.12-0.12
		c0.06-0.03,0.15-0.06,0.18-0.03c0.06,0.06,0.09,0.15,0.09,0.21c-0.03,0.09-0.06,0.15-0.09,0.24c-1.26,3-5.43,6.6-7.95,8.49
		c-1.26,0.96-2.82,1.65-4.41,1.65c-1.23,0-2.25-0.42-3.18-1.17c-0.15-0.09-0.3-0.21-0.45-0.3c-2.67-1.35-3.63-4.08-3.81-6.9
		c0-0.09,0-0.21-0.03-0.33C58.4,57.07,58.34,57.07,58.25,57.07z M59.57,55.51c0.15-3.84,1.5-6.63,1.53-6.63c0,0-0.03,0.12-0.18,0.39
		c-1.41,2.88-2.34,9.51-0.15,12.42C60.95,61.93,59.42,60.1,59.57,55.51z M62.36,47.98c-0.06,0.03-0.06,0.09-0.09,0.15
		C62.33,48.1,62.36,48.04,62.36,47.98z M62.54,47.53c-0.06,0.03-0.09,0.09-0.12,0.15C62.48,47.65,62.51,47.59,62.54,47.53z
		 M66.35,65.08c-0.24,0-0.51-0.03-0.75-0.09c-0.48-0.15-1.89-0.69-1.98-0.69c-0.06,0,0.06,0.09,0.42,0.24
		c0.96,0.42,1.59,0.69,2.25,0.69c0.48,0,1.02-0.12,1.74-0.45C68.03,64.75,67.22,65.08,66.35,65.08z"/>
	<path d="M86.75,45.4c0.18-0.3,0.54-0.39,0.87-0.39c0.42,0,1.02,0.51,1.29,0.87c0.27,0.42,0.51,0.87,0.48,1.41
		c-0.09,0.81-0.12,1.59-0.18,2.4C89.06,51.46,88.97,53.23,89,55c0,1.38,0.09,2.73,0.3,4.08c0.9-0.75,1.62-1.68,2.25-2.67
		c0.84-1.41,1.71-2.79,2.52-4.2c1.68-2.85,3.39-5.73,5.46-8.28c0.24-0.27,0.54-0.36,0.84-0.36c0.48,0,2.1,1.02,2.22,1.38
		c0.06,0.18,0.09,0.42,0.06,0.63c-0.03,0.45-0.09,0.87-0.15,1.32c-0.36,2.67-0.66,5.37-0.81,8.1c-0.09,1.35-0.18,2.7-0.12,4.08
		c0.03,0.9,0.39,5.37,1.26,5.76c0.12,0.03,0.18,0.12,0.33,0.24c-0.09,0.03-0.21,0.03-0.36,0.03c-3.36,0-3.87-7.17-3.96-9.54
		c-0.03-1.44,0.03-2.85,0.15-4.26c0.06-0.81,0.15-1.65,0.24-2.46c0.03-0.03,0-0.09-0.03-0.15c-1.38,2.22-2.67,4.53-3.96,6.81
		c-0.6,1.11-1.23,2.16-1.89,3.21c-0.57,0.93-1.77,2.64-3,2.64c-0.48,0-0.93-0.18-1.26-0.48c-0.21-0.21-0.51-0.36-0.78-0.51
		c-1.41-0.66-1.77-2.25-1.95-3.69c-0.15-1.32-0.18-2.67-0.12-3.99c0-0.15,0-0.3,0-0.45c0-0.03-0.03-0.03-0.06-0.03
		c-0.03,0.09-0.09,0.18-0.12,0.27c-1.56,3.75-2.67,7.71-3.75,11.64c-0.06,0.18-0.06,0.36-0.12,0.51c-0.06,0.21-0.15,0.33-0.3,0.33
		c-0.09,0-0.15-0.03-0.24-0.09c-0.24-0.12-0.51-0.27-0.75-0.42c-1.65-0.99-1.95-5.79-1.95-7.5c0.03-3.42,0.87-10.08,2.22-12.96
		c0.09-0.18,0.36-0.3,0.63-0.3c0.93,0,1.5,1.32,1.56,2.1c0.03,0.6,0.03,1.23,0,1.83c-0.24,3.45-0.63,6.84-1.05,10.26
		c0,0.03,0,0.03,0.03,0.06C83.51,53.77,84.8,49.24,86.75,45.4z M81.14,58.27c0-0.03-0.03-0.06-0.03-0.06c0,0.09,0,0.18-0.03,0.27
		C81.14,58.42,81.14,58.33,81.14,58.27z M82.52,46.15c-0.06,0.03-0.06,0.06-0.06,0.09c-0.57,3.96-1.02,7.92-1.35,11.94
		c0.12-0.12,0.09-0.3,0.09-0.45C81.62,53.86,82.04,49.99,82.52,46.15z M82.73,60.76H82.7c-0.03,0.12-0.06,0.24-0.09,0.36
		C82.67,61,82.7,60.88,82.73,60.76z M85.61,51.79c0-0.06,0.03-0.09,0.03-0.15c-0.45,0.45-2.43,6.9-2.64,8.07
		c0.03-0.12,0.09-0.21,0.12-0.33C83.84,56.8,84.65,54.25,85.61,51.79z M86.39,49.84c-0.15,0.21-0.24,0.45-0.33,0.69
		C86.21,50.29,86.3,50.08,86.39,49.84z"/>
	<path d="M110.42,61.84c0.57,0.12,1.41,0.45,1.56,1.08c0.03,0.18,0,0.3-0.09,0.42c-0.18,0.24-0.39,0.36-0.66,0.42
		c-0.3,0.09-0.6,0.15-0.93,0.24c-0.24,0.06-0.45,0.09-0.69,0.18c-0.57,0.24-2.13,0.78-2.7,0.78c-0.15,0-0.3-0.06-0.39-0.15
		c-0.15-0.15-0.18-0.21-0.09-0.45c-0.06,0-0.09,0-0.15,0c-0.15-0.27-0.27-0.54-0.42-0.78c-0.15-0.3-0.12-0.57,0.03-0.84
		c0.15-0.18,0.3-0.36,0.45-0.48c0.33-0.21,0.69-0.36,1.05-0.51c-0.48-0.63-0.51-1.41-0.6-2.19c-0.18-1.59-0.33-3.18-0.39-4.77
		c-0.12-2.46,0-4.89,0.45-7.32c0.03-0.09,0.03-0.21,0.06-0.36c-0.45,0.06-0.9,0.09-1.35,0.09c-0.21,0-0.6-0.18-0.6-0.42
		c0-0.27-0.12-0.45-0.21-0.69c-0.18-0.45-0.15-0.78,0.21-1.08c0.81-0.66,2.37-1.02,3.36-1.02c0.33,0,0.63,0.03,0.99,0.06
		c0.69,0.12,1.35,0.27,2.01,0.39c0.45,0.12,1.05,0.42,1.35,0.78c0.21,0.24,0.21,0.42-0.03,0.66c-0.21,0.18-0.45,0.3-0.72,0.33
		c-0.81,0.12-1.53,0.27-2.34,0.48c0,0.06,0,0.12,0,0.18c0.09,0.84,0.06,1.68,0.03,2.52c-0.12,1.98-0.3,3.96-0.3,5.97
		c0,1.26,0.03,2.52,0.15,3.78c0.03,0.54,0.09,1.08,0.09,1.62c0,0.3-0.06,0.63-0.09,0.93C109.76,61.75,110.09,61.78,110.42,61.84z
		 M108.47,47.14c-0.15,1.86-0.3,3.75-0.39,5.61c-0.03,1.14-0.03,2.31,0,3.45c0.06,1.41,0.18,2.79,0.3,4.17
		c0.03,0.39,0.06,0.81,0.09,1.23c0.03-0.03,0.06-0.06,0.06-0.09c0.09-0.6,0-1.2-0.03-1.8c-0.09-1.08-0.18-2.19-0.24-3.3
		c-0.09-1.65-0.03-3.3,0.06-4.95c0.06-0.96,0.15-1.92,0.24-2.88c0.03-0.48,0.06-0.96,0.09-1.44c0-0.09,0-0.18-0.03-0.27
		C108.47,46.9,108.47,47.05,108.47,47.14z M109.91,62.32c0.12,0,0.27,0,0.42,0C110.18,62.32,110.03,62.32,109.91,62.32z"/>
	<path d="M126.65,63.85c-0.27,0.57-0.99,1.23-1.62,1.23c-0.12,0-0.24-0.03-0.39-0.06c-0.15-0.03-0.3-0.15-0.45-0.18
		c-0.33-0.12-0.66-0.27-0.99-0.33c-1.5-0.33-1.83-1.92-2.04-3.24c-0.24-1.59-0.3-3.21-0.21-4.8c0.06-1.71,0.84-7.62,1.17-9.3
		c0.15-0.81,0.39-1.59,0.57-2.4c0.09-0.54,0.72-0.87,1.23-0.87c0.09,0,0.18,0.03,0.24,0.15c0,0.03,0.06,0.03,0.06,0.03
		c0.06-0.03,0.09-0.03,0.15-0.03c0.12,0,0.24,0.12,0.39,0.15c0,0.18,0,0.33-0.03,0.54c0.09-0.15,0.15-0.24,0.24-0.39
		c0.18,0.15,0.33,0.3,0.48,0.45c0.03,0,0.03,0.06,0.06,0.09c0.39,0.3,0.36,0.69,0.3,1.08c-0.06,0.72-0.15,1.44-0.27,2.13
		c-0.21,1.65-0.99,7.5-1.05,9.15c-0.06,1.44-0.09,2.88,0,4.35c0,0.09,0.03,0.21,0.03,0.39c0.09-0.09,0.15-0.15,0.18-0.21
		c2.91-7.5,4.98-10.68,9.06-18.06c0.24-0.45,1.23-0.78,1.74-0.78c1.14,0,2.25,1.11,2.4,2.22c0.03,0.36,0.06,0.72,0.06,1.08
		c0.03,1.23,0.03,2.49,0.03,3.72c0,3.09,0,6.15,0.03,9.24c0,1.35,0.21,2.7,0.45,4.02c0.03,0.18,0.09,0.36,0.12,0.54
		c0.03,0.18,0.06,0.33,0.24,0.42c0.03,0.03,0.06,0.12,0.09,0.18c0,0.09,0,0.18,0,0.27c-0.03,0.24-0.12,0.36-0.3,0.36
		c-0.06,0-0.12-0.03-0.21-0.06c-0.24-0.09-0.48-0.18-0.72-0.24c-0.9-0.33-1.38-1.38-1.62-2.25c-0.33-1.02-0.54-2.04-0.72-3.09
		c-0.36-2.22-0.45-4.41-0.42-6.63c0.06-2.25,0.15-4.53,0.3-6.78c0-0.15,0-0.27,0.03-0.42c-0.03,0-0.06-0.03-0.09-0.03
		C130.58,54.04,129.92,55.9,126.65,63.85z M124.49,47.08c-0.15,0-0.12,0.12-0.15,0.18c-0.09,0.72-0.87,5.67-0.96,6.42
		c-0.15,1.47-0.21,2.97-0.18,4.47c0,0.81,0.03,1.59,0.06,2.37c0.06-1.53,0.09-3.09,0.15-4.62c0.06-1.53,0.9-7.29,1.14-8.82
		C124.52,47.08,124.49,47.08,124.49,47.08z M137,55.72c0-1.32,0-2.61,0-3.93c0.03-1.86,0.09-3.75,0.09-5.61
		c0.03-0.27-0.03-0.57-0.03-0.84c-0.15,4.35-0.3,8.7,0,13.05C137.03,57.49,137.03,56.62,137,55.72z"/>
	<path d="M162.53,55.51c0.15,0.03,0.27,0.09,0.3,0.27c-0.3,0.06-0.6,0.06-0.87,0.12c-1.23,0.27-2.43,0.51-3.66,0.75
		c-0.36,0.09-0.75,0.18-1.11,0.24c-0.15,0.03-0.21,0.09-0.24,0.24c-0.3,2.46-0.99,4.8-1.68,7.14c-0.54,1.92-0.99,2.64-1.35,2.64
		c-0.84,0-1.11-3.93-0.99-4.95c0.15-1.32,0.27-2.67,0.39-3.99c0-0.06,0-0.12,0-0.21c-0.09,0-0.18,0.03-0.27,0.03
		c-1.71,0.39-3.36,0.96-5.04,1.44c-1.08,0.3-2.16,0.57-3.24,0.87c-0.15,0.03-0.27,0.09-0.3,0.27c-0.27,1.11-0.51,2.19-0.57,3.36
		c-0.03,0.15-0.03,0.3,0,0.45c0,0.09,0.06,0.21,0.12,0.27c0.09,0.18,0.15,0.33,0.06,0.45c-0.06,0.06-0.15,0.09-0.21,0.09
		c-0.06,0-0.12,0-0.21-0.03c-1.08-0.33-1.41-0.72-1.47-1.95c0-0.69,0.03-1.38,0.06-2.07c0-0.12,0.03-0.27,0.06-0.42
		c-0.24,0-0.45,0.03-0.66,0.03c-0.18,0-0.39,0.03-0.57,0.03c-1.05,0-1.29-0.09-2.07-0.66c-0.09-0.06-0.21-0.15-0.3-0.21
		c-0.18-0.18-0.15-0.33,0.06-0.42c0.18-0.06,0.36-0.12,0.54-0.15c1.02-0.24,2.07-0.51,3.12-0.75c0.24-0.06,0.33-0.18,0.39-0.42
		c1.2-4.5,4.47-12.36,9.3-13.92c0.27-0.09,0.54-0.15,0.81-0.15c2.04,0,3.66,2.1,4.05,3.9c0.27,1.26,0.36,2.52,0.36,3.78
		c-0.03,1.29-0.09,2.58-0.15,3.9c0.99-0.06,1.95-0.15,2.94-0.15C160.94,55.33,161.72,55.39,162.53,55.51z M143.63,60.58
		c0.06-0.03,0.06-0.09,0.09-0.15C143.66,60.46,143.66,60.52,143.63,60.58z M145.4,57.37c0,0.03,0,0.09-0.03,0.18
		c2.7-0.63,5.43-1.05,8.16-1.56c0.3-1.59,0.48-4.11,0.54-5.76c0.03-1.05,0.03-2.13-0.15-3.21c-0.09-0.48-0.18-0.96-0.45-1.5
		C149.42,48.19,147.05,52.96,145.4,57.37z M155.75,57.49c0-0.09,0-0.18,0.03-0.27c-0.18-0.03-0.18,0.06-0.18,0.15l-0.12,0.78
		c-0.3,2.07-0.75,4.11-1.2,6.15c-0.06,0.3-0.09,0.6-0.15,0.87c0.03-0.06,0.06-0.15,0.09-0.21C154.82,62.5,155.39,60.01,155.75,57.49
		z M156.29,50.68c0-0.48-0.06-0.96-0.09-1.41c0,2.13-0.18,4.23-0.39,6.33c0.03,0.03,0.06,0.03,0.09,0.03c0.12,0,0.09-0.12,0.12-0.21
		C156.2,53.83,156.32,52.27,156.29,50.68z"/>
	<path d="M177.86,43.87c0.24-0.48,0.3-0.57,0.6-0.57c0.12,0,0.27,0,0.48,0.03c0.15,0,0.3,0.03,0.36,0.21
		c0.03,0.03,0.09,0.06,0.15,0.06c0.21,0.12,0.3,0.27,0.27,0.54c0.06,0,0.12-0.03,0.15,0c0.06,0.03,0.09,0.09,0.09,0.12
		c0.24,0.48,0.39,0.93,0.21,1.44c-0.33,0.99-0.63,1.98-0.96,2.97c-0.36,0.99-0.69,2.01-0.96,3.06c-0.12,0.48-0.27,0.9-0.42,1.35
		c-0.03,0.12-0.09,0.18-0.15,0.18c-0.06,0-0.12-0.03-0.18-0.06c-0.75-0.54-1.14-1.26-1.17-2.19c0-1.56,0.42-3.9,0.84-5.37
		c0-0.03,0-0.06,0-0.12c-0.15-0.06-0.3-0.09-0.48-0.09c-2.4,0-5.22,2.7-6.66,4.41c-2.37,2.76-4.68,6.81-5.01,10.53
		c-0.06,0.72-0.06,1.44,0.06,2.16c0.21,1.08,0.84,1.35,1.89,1.35c2.19,0,5.22-1.83,7.02-3.03c0.51-0.33,1.02-0.69,1.53-1.02
		c0.09-0.06,0.15-0.12,0.21-0.21c-0.24,0.06-0.51,0.12-0.75,0.18c-0.06,0-0.15,0.03-0.21,0.03c-0.18,0-0.33-0.06-0.51-0.21
		c-0.09-0.09-0.12-0.18-0.03-0.3c-0.09-0.03-0.18-0.03-0.21-0.09c-0.24-0.27-0.45-0.54-0.66-0.84c-0.15-0.18-0.09-0.39,0.15-0.48
		c2.46-0.99,5.07-1.71,7.71-2.13c0.12-0.03,0.21-0.09,0.27-0.18c0.15-0.24,0.3-0.45,0.48-0.66c0.12-0.15,0.39-0.24,0.63-0.24
		c0.33,0,0.81,0.42,0.81,0.75c0.09,0,0.21,0,0.3,0c0.03,0,0.09,0,0.12,0c0.21-0.03,0.39-0.03,0.57-0.03c0.75,0,1.5,0.09,2.16,0.42
		c0.18,0.09,0.33,0.24,0.3,0.45c-1.02,0.42-2.07,0.87-3.15,1.11c-0.21,0.03-0.27,0.15-0.3,0.33c-0.84,2.73-1.5,5.58-1.86,8.43
		c-0.03,0.12-0.03,0.27-0.09,0.39c-0.06,0.15-0.15,0.21-0.27,0.21c-0.06,0-0.15-0.03-0.24-0.06c-0.15-0.12-0.27-0.24-0.42-0.3
		c-1.14-0.63-1.14-2.31-1.14-3.45c-0.06-1.23,0.18-2.4,0.51-3.54c0.03-0.12,0.06-0.24,0.12-0.42c-0.12,0.09-0.18,0.09-0.21,0.12
		c-1.89,1.74-4.41,3.54-6.54,5.04c-1.41,0.96-3.21,1.86-4.95,1.86c-1.2,0-2.34-0.42-3.15-1.32c-0.18-0.15-0.36-0.3-0.54-0.45
		c-1.17-0.81-1.86-1.95-2.13-3.36c-0.24-1.38-0.12-2.73,0.18-4.02c1.11-4.5,5.28-10.38,9.54-12.6c0.84-0.42,1.74-0.72,2.7-0.72
		c0.9,0,1.74,0.27,2.55,0.87c0.03,0,0.06,0.03,0.09,0.06C177.65,44.26,177.74,44.08,177.86,43.87z M171.83,46.63
		c-2.64,1.74-5.64,6.12-6.66,9.09c1.62-3.57,3.81-6.63,6.75-9.09C171.86,46.63,171.83,46.6,171.83,46.63z"/>
	<path d="M209.24,55.51c0.15,0.03,0.27,0.09,0.3,0.27c-0.3,0.06-0.6,0.06-0.87,0.12c-1.23,0.27-2.43,0.51-3.66,0.75
		c-0.36,0.09-0.75,0.18-1.11,0.24c-0.15,0.03-0.21,0.09-0.24,0.24c-0.3,2.46-0.99,4.8-1.68,7.14c-0.54,1.92-0.99,2.64-1.35,2.64
		c-0.84,0-1.11-3.93-0.99-4.95c0.15-1.32,0.27-2.67,0.39-3.99c0-0.06,0-0.12,0-0.21c-0.09,0-0.18,0.03-0.27,0.03
		c-1.71,0.39-3.36,0.96-5.04,1.44c-1.08,0.3-2.16,0.57-3.24,0.87c-0.15,0.03-0.27,0.09-0.3,0.27c-0.27,1.11-0.51,2.19-0.57,3.36
		c-0.03,0.15-0.03,0.3,0,0.45c0,0.09,0.06,0.21,0.12,0.27c0.09,0.18,0.15,0.33,0.06,0.45c-0.06,0.06-0.15,0.09-0.21,0.09
		c-0.06,0-0.12,0-0.21-0.03c-1.08-0.33-1.41-0.72-1.47-1.95c0-0.69,0.03-1.38,0.06-2.07c0-0.12,0.03-0.27,0.06-0.42
		c-0.24,0-0.45,0.03-0.66,0.03c-0.18,0-0.39,0.03-0.57,0.03c-1.05,0-1.29-0.09-2.07-0.66c-0.09-0.06-0.21-0.15-0.3-0.21
		c-0.18-0.18-0.15-0.33,0.06-0.42c0.18-0.06,0.36-0.12,0.54-0.15c1.02-0.24,2.07-0.51,3.12-0.75c0.24-0.06,0.33-0.18,0.39-0.42
		c1.2-4.5,4.47-12.36,9.3-13.92c0.27-0.09,0.54-0.15,0.81-0.15c2.04,0,3.66,2.1,4.05,3.9c0.27,1.26,0.36,2.52,0.36,3.78
		c-0.03,1.29-0.09,2.58-0.15,3.9c0.99-0.06,1.95-0.15,2.94-0.15C207.65,55.33,208.43,55.39,209.24,55.51z M190.34,60.58
		c0.06-0.03,0.06-0.09,0.09-0.15C190.37,60.46,190.37,60.52,190.34,60.58z M192.11,57.37c0,0.03,0,0.09-0.03,0.18
		c2.7-0.63,5.43-1.05,8.16-1.56c0.3-1.59,0.48-4.11,0.54-5.76c0.03-1.05,0.03-2.13-0.15-3.21c-0.09-0.48-0.18-0.96-0.45-1.5
		C196.13,48.19,193.76,52.96,192.11,57.37z M202.46,57.49c0-0.09,0-0.18,0.03-0.27c-0.18-0.03-0.18,0.06-0.18,0.15l-0.12,0.78
		c-0.3,2.07-0.75,4.11-1.2,6.15c-0.06,0.3-0.09,0.6-0.15,0.87c0.03-0.06,0.06-0.15,0.09-0.21C201.53,62.5,202.1,60.01,202.46,57.49z
		 M203,50.68c0-0.48-0.06-0.96-0.09-1.41c0,2.13-0.18,4.23-0.39,6.33c0.03,0.03,0.06,0.03,0.09,0.03c0.12,0,0.09-0.12,0.12-0.21
		C202.91,53.83,203.03,52.27,203,50.68z"/>
	<path d="M217.67,45.4c0.18-0.3,0.54-0.39,0.87-0.39c0.42,0,1.02,0.51,1.29,0.87c0.27,0.42,0.51,0.87,0.48,1.41
		c-0.09,0.81-0.12,1.59-0.18,2.4c-0.15,1.77-0.24,3.54-0.21,5.31c0,1.38,0.09,2.73,0.3,4.08c0.9-0.75,1.62-1.68,2.25-2.67
		c0.84-1.41,1.71-2.79,2.52-4.2c1.68-2.85,3.39-5.73,5.46-8.28c0.24-0.27,0.54-0.36,0.84-0.36c0.48,0,2.1,1.02,2.22,1.38
		c0.06,0.18,0.09,0.42,0.06,0.63c-0.03,0.45-0.09,0.87-0.15,1.32c-0.36,2.67-0.66,5.37-0.81,8.1c-0.09,1.35-0.18,2.7-0.12,4.08
		c0.03,0.9,0.39,5.37,1.26,5.76c0.12,0.03,0.18,0.12,0.33,0.24c-0.09,0.03-0.21,0.03-0.36,0.03c-3.36,0-3.87-7.17-3.96-9.54
		c-0.03-1.44,0.03-2.85,0.15-4.26c0.06-0.81,0.15-1.65,0.24-2.46c0.03-0.03,0-0.09-0.03-0.15c-1.38,2.22-2.67,4.53-3.96,6.81
		c-0.6,1.11-1.23,2.16-1.89,3.21c-0.57,0.93-1.77,2.64-3,2.64c-0.48,0-0.93-0.18-1.26-0.48c-0.21-0.21-0.51-0.36-0.78-0.51
		c-1.41-0.66-1.77-2.25-1.95-3.69c-0.15-1.32-0.18-2.67-0.12-3.99c0-0.15,0-0.3,0-0.45c0-0.03-0.03-0.03-0.06-0.03
		c-0.03,0.09-0.09,0.18-0.12,0.27c-1.56,3.75-2.67,7.71-3.75,11.64c-0.06,0.18-0.06,0.36-0.12,0.51c-0.06,0.21-0.15,0.33-0.3,0.33
		c-0.09,0-0.15-0.03-0.24-0.09c-0.24-0.12-0.51-0.27-0.75-0.42c-1.65-0.99-1.95-5.79-1.95-7.5c0.03-3.42,0.87-10.08,2.22-12.96
		c0.09-0.18,0.36-0.3,0.63-0.3c0.93,0,1.5,1.32,1.56,2.1c0.03,0.6,0.03,1.23,0,1.83c-0.24,3.45-0.63,6.84-1.05,10.26
		c0,0.03,0,0.03,0.03,0.06C214.43,53.77,215.72,49.24,217.67,45.4z M212.06,58.27c0-0.03-0.03-0.06-0.03-0.06
		c0,0.09,0,0.18-0.03,0.27C212.06,58.42,212.06,58.33,212.06,58.27z M213.44,46.15c-0.06,0.03-0.06,0.06-0.06,0.09
		c-0.57,3.96-1.02,7.92-1.35,11.94c0.12-0.12,0.09-0.3,0.09-0.45C212.54,53.86,212.96,49.99,213.44,46.15z M213.65,60.76h-0.03
		c-0.03,0.12-0.06,0.24-0.09,0.36C213.59,61,213.62,60.88,213.65,60.76z M216.53,51.79c0-0.06,0.03-0.09,0.03-0.15
		c-0.45,0.45-2.43,6.9-2.64,8.07c0.03-0.12,0.09-0.21,0.12-0.33C214.76,56.8,215.57,54.25,216.53,51.79z M217.31,49.84
		c-0.15,0.21-0.24,0.45-0.33,0.69C217.13,50.29,217.22,50.08,217.31,49.84z"/>
	<path d="M241.34,61.84c0.57,0.12,1.41,0.45,1.56,1.08c0.03,0.18,0,0.3-0.09,0.42c-0.18,0.24-0.39,0.36-0.66,0.42
		c-0.3,0.09-0.6,0.15-0.93,0.24c-0.24,0.06-0.45,0.09-0.69,0.18c-0.57,0.24-2.13,0.78-2.7,0.78c-0.15,0-0.3-0.06-0.39-0.15
		c-0.15-0.15-0.18-0.21-0.09-0.45c-0.06,0-0.09,0-0.15,0c-0.15-0.27-0.27-0.54-0.42-0.78c-0.15-0.3-0.12-0.57,0.03-0.84
		c0.15-0.18,0.3-0.36,0.45-0.48c0.33-0.21,0.69-0.36,1.05-0.51c-0.48-0.63-0.51-1.41-0.6-2.19c-0.18-1.59-0.33-3.18-0.39-4.77
		c-0.12-2.46,0-4.89,0.45-7.32c0.03-0.09,0.03-0.21,0.06-0.36c-0.45,0.06-0.9,0.09-1.35,0.09c-0.21,0-0.6-0.18-0.6-0.42
		c0-0.27-0.12-0.45-0.21-0.69c-0.18-0.45-0.15-0.78,0.21-1.08c0.81-0.66,2.37-1.02,3.36-1.02c0.33,0,0.63,0.03,0.99,0.06
		c0.69,0.12,1.35,0.27,2.01,0.39c0.45,0.12,1.05,0.42,1.35,0.78c0.21,0.24,0.21,0.42-0.03,0.66c-0.21,0.18-0.45,0.3-0.72,0.33
		c-0.81,0.12-1.53,0.27-2.34,0.48c0,0.06,0,0.12,0,0.18c0.09,0.84,0.06,1.68,0.03,2.52c-0.12,1.98-0.3,3.96-0.3,5.97
		c0,1.26,0.03,2.52,0.15,3.78c0.03,0.54,0.09,1.08,0.09,1.62c0,0.3-0.06,0.63-0.09,0.93C240.68,61.75,241.01,61.78,241.34,61.84z
		 M239.39,47.14c-0.15,1.86-0.3,3.75-0.39,5.61c-0.03,1.14-0.03,2.31,0,3.45c0.06,1.41,0.18,2.79,0.3,4.17
		c0.03,0.39,0.06,0.81,0.09,1.23c0.03-0.03,0.06-0.06,0.06-0.09c0.09-0.6,0-1.2-0.03-1.8c-0.09-1.08-0.18-2.19-0.24-3.3
		c-0.09-1.65-0.03-3.3,0.06-4.95c0.06-0.96,0.15-1.92,0.24-2.88c0.03-0.48,0.06-0.96,0.09-1.44c0-0.09,0-0.18-0.03-0.27
		C239.39,46.9,239.39,47.05,239.39,47.14z M240.83,62.32c0.12,0,0.27,0,0.42,0C241.1,62.32,240.95,62.32,240.83,62.32z"/>
	<path d="M250.07,63.85c-0.27,0.57-0.99,1.23-1.62,1.23c-0.12,0-0.24-0.03-0.39-0.06c-0.15-0.03-0.3-0.15-0.45-0.18
		c-0.33-0.12-0.66-0.27-0.99-0.33c-1.5-0.33-1.83-1.92-2.04-3.24c-0.24-1.59-0.3-3.21-0.21-4.8c0.06-1.71,0.84-7.62,1.17-9.3
		c0.15-0.81,0.39-1.59,0.57-2.4c0.09-0.54,0.72-0.87,1.23-0.87c0.09,0,0.18,0.03,0.24,0.15c0,0.03,0.06,0.03,0.06,0.03
		c0.06-0.03,0.09-0.03,0.15-0.03c0.12,0,0.24,0.12,0.39,0.15c0,0.18,0,0.33-0.03,0.54c0.09-0.15,0.15-0.24,0.24-0.39
		c0.18,0.15,0.33,0.3,0.48,0.45c0.03,0,0.03,0.06,0.06,0.09c0.39,0.3,0.36,0.69,0.3,1.08c-0.06,0.72-0.15,1.44-0.27,2.13
		c-0.21,1.65-0.99,7.5-1.05,9.15c-0.06,1.44-0.09,2.88,0,4.35c0,0.09,0.03,0.21,0.03,0.39c0.09-0.09,0.15-0.15,0.18-0.21
		c2.91-7.5,4.98-10.68,9.06-18.06c0.24-0.45,1.23-0.78,1.74-0.78c1.14,0,2.25,1.11,2.4,2.22c0.03,0.36,0.06,0.72,0.06,1.08
		c0.03,1.23,0.03,2.49,0.03,3.72c0,3.09,0,6.15,0.03,9.24c0,1.35,0.21,2.7,0.45,4.02c0.03,0.18,0.09,0.36,0.12,0.54
		c0.03,0.18,0.06,0.33,0.24,0.42c0.03,0.03,0.06,0.12,0.09,0.18c0,0.09,0,0.18,0,0.27c-0.03,0.24-0.12,0.36-0.3,0.36
		c-0.06,0-0.12-0.03-0.21-0.06c-0.24-0.09-0.48-0.18-0.72-0.24c-0.9-0.33-1.38-1.38-1.62-2.25c-0.33-1.02-0.54-2.04-0.72-3.09
		c-0.36-2.22-0.45-4.41-0.42-6.63c0.06-2.25,0.15-4.53,0.3-6.78c0-0.15,0-0.27,0.03-0.42c-0.03,0-0.06-0.03-0.09-0.03
		C254,54.04,253.34,55.9,250.07,63.85z M247.91,47.08c-0.15,0-0.12,0.12-0.15,0.18c-0.09,0.72-0.87,5.67-0.96,6.42
		c-0.15,1.47-0.21,2.97-0.18,4.47c0,0.81,0.03,1.59,0.06,2.37c0.06-1.53,0.09-3.09,0.15-4.62c0.06-1.53,0.9-7.29,1.14-8.82
		C247.94,47.08,247.91,47.08,247.91,47.08z M260.42,55.72c0-1.32,0-2.61,0-3.93c0.03-1.86,0.09-3.75,0.09-5.61
		c0.03-0.27-0.03-0.57-0.03-0.84c-0.15,4.35-0.3,8.7,0,13.05C260.45,57.49,260.45,56.62,260.42,55.72z"/>
	<path d="M264.71,57.07c-0.33-0.06-0.6-0.15-0.72-0.57c-0.03-0.12-0.15-0.21-0.21-0.33c-0.09-0.18-0.21-0.36-0.3-0.54
		c-0.12-0.18-0.09-0.33,0.09-0.39c0.18-0.06,0.36-0.12,0.51-0.15c0.33-0.09,0.63-0.18,0.99-0.24c0.21-2.25,0.72-4.38,1.47-6.42
		c-0.03-0.03-0.06-0.06-0.06-0.09c-0.21-0.12-0.36-0.24-0.42-0.48c-0.09-0.27-0.33-0.48-0.48-0.72c-0.09-0.12-0.18-0.27-0.27-0.42
		c-0.18-0.3-0.18-0.6,0.03-0.84c0.69-0.87,1.92-1.44,2.97-1.68c0.21-0.06,0.39-0.12,0.51-0.36c0.21-0.33,0.54-0.66,0.96-0.66
		c0.39,0,0.63,0.15,0.84,0.48c0.09,0.12,0.15,0.15,0.27,0.15c0.54-0.03,1.05-0.06,1.59-0.06c0.78,0,1.59,0.06,2.37,0.15
		c1.5,0.21,3,0.45,4.47,0.69c0.87,0.15,1.89,0.6,2.58,1.14c0.18,0.15,0.3,0.33,0.27,0.6c-0.54,0.24-1.11,0.33-1.71,0.33
		c-0.54,0-1.08-0.03-1.62-0.06c-1.2,0-2.37,0.03-3.57,0.12c-1.02,0.09-2.04,0.12-3.03,0.18c-0.66,0.03-1.32,0.12-1.98,0.15
		c-0.15,0.03-0.24,0.09-0.27,0.27c-0.69,2.19-1.26,4.44-1.56,6.72c0,0,0,0.06,0,0.12c0.33-0.06,0.63-0.12,0.93-0.18
		c0.63-0.12,1.32-0.18,1.98-0.18c0.42,0,1.59,0.03,1.98,0.18c0.15,0.06,0.21,0.24,0.12,0.36c-0.66,0.78-2.25,1.41-3.18,1.68
		c-0.69,0.18-1.38,0.36-2.07,0.54c-0.03,0.15-0.03,0.27-0.03,0.42c-0.06,1.38-0.03,2.76,0.3,4.11c0.42,1.83,0.93,2.67,3.06,2.67
		c2.01,0,4.41-1.23,5.97-2.37c1.47-1.08,2.82-2.25,4.17-3.42c0.96-0.84,1.95-1.68,2.85-2.61c0.03-0.06,0.06-0.09,0.12-0.12
		c0.06-0.03,0.15-0.06,0.18-0.03c0.06,0.06,0.09,0.15,0.09,0.21c-0.03,0.09-0.06,0.15-0.09,0.24c-1.26,3-5.43,6.6-7.95,8.49
		c-1.26,0.96-2.82,1.65-4.41,1.65c-1.23,0-2.25-0.42-3.18-1.17c-0.15-0.09-0.3-0.21-0.45-0.3c-2.67-1.35-3.63-4.08-3.81-6.9
		c0-0.09,0-0.21-0.03-0.33C264.86,57.07,264.8,57.07,264.71,57.07z M266.03,55.51c0.15-3.84,1.5-6.63,1.53-6.63
		c0,0-0.03,0.12-0.18,0.39c-1.41,2.88-2.34,9.51-0.15,12.42C267.41,61.93,265.88,60.1,266.03,55.51z M268.82,47.98
		c-0.06,0.03-0.06,0.09-0.09,0.15C268.79,48.1,268.82,48.04,268.82,47.98z M269,47.53c-0.06,0.03-0.09,0.09-0.12,0.15
		C268.94,47.65,268.97,47.59,269,47.53z M272.81,65.08c-0.24,0-0.51-0.03-0.75-0.09c-0.48-0.15-1.89-0.69-1.98-0.69
		c-0.06,0,0.06,0.09,0.42,0.24c0.96,0.42,1.59,0.69,2.25,0.69c0.48,0,1.02-0.12,1.74-0.45C274.49,64.75,273.68,65.08,272.81,65.08z"
		/>
</g>
</svg>
